<svg width="23" height="22" viewBox="0 0 23 22" fill="none" xmlns="http://www.w3.org/2000/svg">
<path d="M15.8366 2.04596C17.0658 2.04949 18.2437 2.5213 19.113 3.35834C19.9822 4.19538 20.4721 5.32963 20.4758 6.51337V15.4472C20.4721 16.631 19.9822 17.7652 19.113 18.6023C18.2437 19.4393 17.0658 19.9111 15.8366 19.9147H6.55909C5.32982 19.9111 4.15194 19.4393 3.28271 18.6023C2.41348 17.7652 1.92352 16.631 1.91985 15.4472V6.51337C1.92352 5.32963 2.41348 4.19538 3.28271 3.35834C4.15194 2.5213 5.32982 2.04949 6.55909 2.04596H15.8366ZM15.8366 0.259277H6.55909C2.98697 0.259277 0.0644531 3.07355 0.0644531 6.51337V15.4472C0.0644531 18.8871 2.98697 21.7013 6.55909 21.7013H15.8366C19.4087 21.7013 22.3312 18.8871 22.3312 15.4472V6.51337C22.3312 3.07355 19.4087 0.259277 15.8366 0.259277Z" fill="#2B4248"/>
<path d="M17.228 6.51327C16.9527 6.51327 16.6837 6.43467 16.4548 6.28742C16.2259 6.14016 16.0476 5.93086 15.9422 5.68598C15.8369 5.44111 15.8093 5.17165 15.863 4.91169C15.9167 4.65173 16.0493 4.41294 16.2439 4.22552C16.4385 4.0381 16.6865 3.91047 16.9565 3.85876C17.2264 3.80705 17.5062 3.83359 17.7605 3.93502C18.0148 4.03645 18.2322 4.20822 18.3851 4.4286C18.538 4.64898 18.6196 4.90809 18.6196 5.17314C18.62 5.34923 18.5843 5.52367 18.5145 5.68643C18.4447 5.84919 18.3422 5.99708 18.2129 6.1216C18.0836 6.24611 17.93 6.34481 17.761 6.41203C17.592 6.47924 17.4108 6.51365 17.228 6.51327ZM11.1976 7.40637C11.9316 7.40637 12.6491 7.61597 13.2594 8.00867C13.8698 8.40137 14.3454 8.95952 14.6263 9.61256C14.9072 10.2656 14.9807 10.9842 14.8375 11.6774C14.6943 12.3707 14.3409 13.0075 13.8218 13.5073C13.3028 14.0071 12.6415 14.3475 11.9216 14.4854C11.2017 14.6233 10.4555 14.5525 9.7773 14.282C9.09915 14.0115 8.51953 13.5534 8.11172 12.9657C7.70392 12.378 7.48626 11.687 7.48626 10.9802C7.48731 10.0327 7.87866 9.12425 8.57443 8.45424C9.27021 7.78424 10.2136 7.40738 11.1976 7.40637ZM11.1976 5.61969C10.0966 5.61969 9.0203 5.93408 8.10486 6.5231C7.18943 7.11212 6.47593 7.94932 6.0546 8.92882C5.63327 9.90833 5.52303 10.9862 5.73782 12.026C5.95262 13.0658 6.48279 14.021 7.26131 14.7707C8.03982 15.5203 9.03171 16.0309 10.1115 16.2377C11.1914 16.4446 12.3107 16.3384 13.3278 15.9327C14.345 15.527 15.2144 14.8399 15.8261 13.9584C16.4378 13.0768 16.7642 12.0404 16.7642 10.9802C16.7642 9.55851 16.1778 8.19504 15.1338 7.18975C14.0898 6.18446 12.6739 5.61969 11.1976 5.61969Z" fill="#2B4248"/>
</svg>
