<svg xmlns="http://www.w3.org/2000/svg" width="229" height="45" viewBox="0 0 229 45" fill="none">
<path d="M43.96 33L53.44 10.41H53.62L63.07 33H59.74L52.66 14.97L54.73 13.62L46.81 33H43.96ZM49.51 24.78H57.58L58.54 27.3H48.67L49.51 24.78ZM73.6052 20.58L73.8752 24.18L73.7252 23.7C74.0452 22.94 74.5052 22.3 75.1052 21.78C75.7252 21.24 76.3652 20.83 77.0252 20.55C77.7052 20.25 78.2952 20.1 78.7952 20.1L78.6452 22.86C77.7052 22.8 76.8752 22.98 76.1552 23.4C75.4552 23.82 74.8952 24.38 74.4752 25.08C74.0752 25.78 73.8752 26.53 73.8752 27.33V33H71.1152V20.58H73.6052ZM96.5971 31.86C96.0371 32.3 95.3671 32.65 94.5871 32.91C93.8071 33.17 93.0271 33.3 92.2471 33.3C90.8871 33.3 89.6971 33.03 88.6771 32.49C87.6571 31.95 86.8571 31.2 86.2771 30.24C85.7171 29.26 85.4371 28.11 85.4371 26.79C85.4371 25.47 85.7371 24.32 86.3371 23.34C86.9571 22.36 87.7571 21.61 88.7371 21.09C89.7371 20.55 90.8071 20.28 91.9471 20.28C92.9471 20.28 93.8371 20.42 94.6171 20.7C95.4171 20.98 96.0971 21.36 96.6571 21.84L95.2771 23.64C94.9171 23.36 94.4771 23.11 93.9571 22.89C93.4371 22.67 92.8471 22.56 92.1871 22.56C91.4671 22.56 90.7971 22.75 90.1771 23.13C89.5771 23.49 89.0971 23.99 88.7371 24.63C88.3971 25.27 88.2271 25.99 88.2271 26.79C88.2271 27.55 88.4071 28.26 88.7671 28.92C89.1271 29.56 89.6271 30.07 90.2671 30.45C90.9071 30.81 91.6371 30.99 92.4571 30.99C92.9971 30.99 93.4871 30.91 93.9271 30.75C94.3871 30.59 94.7971 30.37 95.1571 30.09L96.5971 31.86ZM104.849 33V9.78H107.579V23.46L107.519 22.95C107.939 22.13 108.579 21.45 109.439 20.91C110.319 20.37 111.349 20.1 112.529 20.1C113.709 20.1 114.669 20.45 115.409 21.15C116.169 21.83 116.559 22.72 116.579 23.82V33H113.759V24.81C113.739 24.13 113.539 23.58 113.159 23.16C112.799 22.72 112.229 22.5 111.449 22.5C110.729 22.5 110.079 22.71 109.499 23.13C108.919 23.53 108.459 24.08 108.119 24.78C107.799 25.48 107.639 26.28 107.639 27.18V33H104.849ZM126.081 20.58H128.871V33H126.081V20.58ZM125.871 16.08C125.871 15.64 126.041 15.27 126.381 14.97C126.741 14.67 127.131 14.52 127.551 14.52C127.971 14.52 128.341 14.67 128.661 14.97C129.001 15.27 129.171 15.64 129.171 16.08C129.171 16.54 129.001 16.92 128.661 17.22C128.341 17.5 127.971 17.64 127.551 17.64C127.131 17.64 126.741 17.49 126.381 17.19C126.041 16.89 125.871 16.52 125.871 16.08ZM137.268 10.92H152.148V15.12H146.778V33H142.428V15.12H137.268V10.92ZM166.726 26.13L158.596 10.92H163.966L169.666 22.38L168.376 22.47L173.986 10.92H179.356L171.076 26.13V33H166.726V26.13ZM193.986 10.92C195.806 10.92 197.346 11.23 198.606 11.85C199.866 12.45 200.826 13.31 201.486 14.43C202.146 15.53 202.476 16.84 202.476 18.36C202.476 19.26 202.336 20.17 202.056 21.09C201.796 21.99 201.366 22.81 200.766 23.55C200.186 24.29 199.396 24.89 198.396 25.35C197.416 25.79 196.206 26.01 194.766 26.01H191.646V33H187.296V10.92H193.986ZM194.736 21.78C195.396 21.78 195.946 21.67 196.386 21.45C196.826 21.21 197.166 20.92 197.406 20.58C197.666 20.22 197.846 19.85 197.946 19.47C198.066 19.09 198.126 18.76 198.126 18.48C198.126 18.26 198.086 17.97 198.006 17.61C197.946 17.23 197.806 16.85 197.586 16.47C197.366 16.09 197.026 15.77 196.566 15.51C196.126 15.25 195.526 15.12 194.766 15.12H191.646V21.78H194.736ZM211.019 10.92H226.079V15.12H215.369V19.83H224.849V24.03H215.369V28.8H226.499V33H211.019V10.92Z" fill="#2B4248"/>
<path d="M1 39V16.2L21.8095 1V39" stroke="#2B4248"/>
<path d="M11.8574 39V16.2L32.6669 1V39" stroke="#2B4248"/>
<path d="M21.8098 20L11.8574 26.8623V39H21.8098V20Z" fill="#2B4248"/>
</svg>